<?xml version="1.0" standalone="no"?>
<!DOCTYPE svg PUBLIC "-//W3C//DTD SVG 20010904//EN"
 "http://www.w3.org/TR/2001/REC-SVG-20010904/DTD/svg10.dtd">
<svg version="1.0" xmlns="http://www.w3.org/2000/svg"
 width="512.000000pt" height="512.000000pt" viewBox="0 0 512.000000 512.000000"
 preserveAspectRatio="xMidYMid meet">
<metadata>
Created by potrace 1.11, written by Peter Selinger 2001-2013
</metadata>
<g transform="translate(0.000000,512.000000) scale(0.100000,-0.100000)"
fill="#000000" stroke="none">
<path d="M2097 3924 c-1 -1 -26 -5 -55 -8 -130 -15 -275 -86 -390 -190 -80
-72 -149 -198 -347 -633 l-28 -61 -296 -4 c-277 -4 -300 -6 -358 -27 -197 -72
-346 -251 -378 -456 -8 -56 -8 -773 0 -810 10 -41 49 -91 96 -122 38 -25 45
-26 209 -28 94 -1 172 -4 173 -6 1 -2 18 -35 37 -74 47 -95 151 -201 250 -254
97 -52 183 -73 295 -74 172 0 310 58 435 183 41 41 85 96 98 122 13 26 28 51
34 54 6 4 322 7 702 7 l691 0 34 -59 c49 -84 161 -191 246 -235 100 -51 183
-72 291 -72 239 0 452 137 560 358 10 22 20 42 22 44 1 3 75 5 165 6 149 0
166 2 207 24 51 26 64 40 91 98 18 39 19 64 19 435 -1 432 -4 457 -62 573 -16
33 -45 78 -63 100 -62 75 -941 946 -985 977 -74 49 -157 88 -239 110 -73 20
-102 21 -764 23 -378 0 -688 0 -690 -1z m363 -413 c3 0 5 -108 5 -238 l0 -238
-368 -3 c-202 -1 -367 -1 -367 1 0 6 53 123 111 246 68 144 146 213 258 230
36 5 340 7 361 2z m985 -11 c22 -7 53 -21 70 -31 25 -16 314 -297 419 -408
l30 -31 -545 0 -545 0 2 243 c1 133 2 242 3 242 0 0 119 0 264 0 190 -1 273
-5 302 -15z m948 -903 c68 -52 71 -62 71 -342 l1 -250 -36 -3 c-35 -3 -36 -2
-72 70 -73 148 -208 262 -372 313 -64 20 -224 27 -300 12 -144 -27 -303 -135
-386 -263 -26 -40 -61 -113 -73 -149 -6 -20 -14 -20 -668 -20 l-663 0 -26 62
c-41 96 -66 133 -145 209 -235 232 -606 231 -846 -1 -55 -54 -120 -147 -140
-201 -11 -31 -16 -34 -50 -34 l-38 0 0 244 c0 274 4 295 66 343 31 23 49 28
118 33 44 3 855 5 1802 5 l1721 0 36 -28z m-2994 -627 c22 -13 53 -42 68 -64
24 -35 28 -51 28 -113 0 -64 -3 -75 -31 -114 -113 -156 -357 -87 -368 104 -5
86 41 162 119 198 52 24 129 19 184 -11z m2494 14 c54 -18 108 -74 124 -129
31 -101 -26 -216 -124 -249 -65 -22 -101 -20 -160 9 -67 34 -103 88 -110 165
-5 50 -2 65 22 109 52 94 146 130 248 95z"/>
</g>
</svg>
